<svg id="Filloutline" enable-background="new 0 0 128 128" height="512" viewBox="0 0 128 128" width="512" xmlns="http://www.w3.org/2000/svg" xmlns:xlink="http://www.w3.org/1999/xlink"><linearGradient id="lg1"><stop offset="0" stop-color="#f1f2f2"/><stop offset="1" stop-color="#e6e7e8"/></linearGradient><linearGradient id="SVGID_1_" gradientUnits="userSpaceOnUse" x1="64" x2="64" xlink:href="#lg1" y1="121.5" y2="110.495"/><linearGradient id="lg2"><stop offset="0" stop-color="#967e7f"/><stop offset="1" stop-color="#373638"/></linearGradient><linearGradient id="SVGID_2_" gradientUnits="userSpaceOnUse" x1="15.467" x2="24.567" xlink:href="#lg2" y1="83" y2="83"/><linearGradient id="SVGID_3_" gradientUnits="userSpaceOnUse" x1="20.504" x2="20.504" xlink:href="#lg1" y1="43.754" y2="96.863"/><linearGradient id="SVGID_4_" gradientUnits="userSpaceOnUse" x1="107.504" x2="107.504" xlink:href="#lg1" y1="43.754" y2="96.863"/><linearGradient id="SVGID_5_" gradientUnits="userSpaceOnUse" x1="47.249" x2="121.915" xlink:href="#lg1" y1="14.092" y2="40.426"/><linearGradient id="lg3"><stop offset="0" stop-color="#dee1e1"/><stop offset="1" stop-color="#d6d7d9"/></linearGradient><linearGradient id="SVGID_6_" gradientUnits="userSpaceOnUse" x1="50" x2="78" xlink:href="#lg3" y1="6" y2="6"/><linearGradient id="SVGID_7_" gradientUnits="userSpaceOnUse" x1="21.419" x2="-25.14" xlink:href="#lg1" y1="39.889" y2="37.642"/><linearGradient id="SVGID_8_" gradientUnits="userSpaceOnUse" x1="48.805" x2="57.46" xlink:href="#lg3" y1="74.036" y2="60.932"/><linearGradient id="SVGID_9_" gradientUnits="userSpaceOnUse" x1="62.741" x2="132.66" xlink:href="#lg1" y1="41.325" y2="46.588"/><linearGradient id="SVGID_10_" gradientUnits="userSpaceOnUse" x1="60.757" x2="59.924" xlink:href="#lg1" y1="-12.228" y2="4.272"/><linearGradient id="SVGID_11_" gradientUnits="userSpaceOnUse" x1="52.002" x2="52.002" xlink:href="#lg2" y1="81.75" y2="87.032"/><linearGradient id="SVGID_12_" gradientTransform="matrix(-1 0 0 1 488.003 0)" gradientUnits="userSpaceOnUse" x1="412.002" x2="412.002" xlink:href="#lg2" y1="81.75" y2="87.032"/><linearGradient id="SVGID_13_" gradientUnits="userSpaceOnUse" x1="68.599" x2="67.266" y1="49.657" y2="59.324"><stop offset="0" stop-color="#58595b"/><stop offset="1" stop-color="#414042"/></linearGradient><linearGradient id="SVGID_14_" gradientUnits="userSpaceOnUse" x1="113.504" x2="113.504" xlink:href="#lg3" y1="-2.25" y2="23.02"/><linearGradient id="SVGID_15_" gradientTransform="matrix(-1 0 0 1 611.008 0)" gradientUnits="userSpaceOnUse" x1="596.512" x2="596.512" xlink:href="#lg3" y1="-2.25" y2="23.02"/><g><g><path d="m100.989 112-8.989-23c-1-2-1.773-2-3-2h-25-25c-1.227 0-2 0-3 2l-8.989 23c-1.688 3.312-.96 5.097 0 6 4.602 4.333 16.941 7.995 36.989 8 20.048-.004 32.387-3.666 36.989-8 .96-.903 1.688-2.688 0-6z" fill="url(#SVGID_1_)"/><path d="m90 87h-52l1-8h50z" fill="url(#SVGID_2_)"/><path d="m27 25-24 62.962c-.688 1.781-2.625 5.396 2 7l14 5c1.062.434 6.021 3.333 8-3l12-41.962z" fill="url(#SVGID_3_)"/><path d="m101.008 25 24 62.962c.688 1.781 2.625 5.396-2 7l-14 5c-1.062.434-6.021 3.333-8-3l-12-41.962z" fill="url(#SVGID_4_)"/><path d="m50 3h28v34h-28z" fill="url(#SVGID_5_)"/><path d="m50 3h28v6h-28z" fill="url(#SVGID_6_)"/><path d="m45 13 2-4 3-6c15 41 43.014 73 43.014 73-.479 1.733-2.202 3-4 3h-50.028c-1.798 0-3.521-1.267-4-3l-7.986-51z" fill="url(#SVGID_7_)"/><path d="m47 9 3-6c15 41 43.014 73 43.014 73-.479 1.733-2.202 3-4 3h-.014s-27-29-42-70z" fill="url(#SVGID_8_)"/><path d="m83 13-2-4-3-6c-15 41-43.014 73-43.014 73 .479 1.733 2.202 3 4 3h50.028c1.798 0 3.521-1.267 4-3l7.986-51z" fill="url(#SVGID_9_)"/><path d="m81 9-3-6c-15 41-43.014 73-43.014 73 .479 1.733 2.202 3 4 3h.014s27-29 42-70z" fill="url(#SVGID_10_)"/><path d="m47 112-5-3c-.843-.579-1.741-.8 0-3l16-22 5 3-13 25c-.859 1.875-1.69.639-3 0z" fill="url(#SVGID_11_)"/><path d="m81.003 112 5-3c.843-.579 1.741-.8 0-3l-16-22-5 3 13 25c.86 1.875 1.691.639 3 0z" fill="url(#SVGID_12_)"/><path d="m69 89h-10c-1.65 0-3-1.35-3-3v-6c0-1.65 1.35-3 3-3h10c1.65 0 3 1.35 3 3v6c0 1.65-1.35 3-3 3z" fill="url(#SVGID_13_)"/><path d="m109.008 99.962 14-5c4.625-1.604 2.688-5.219 2-7l-24 9c1.979 6.333 6.938 3.434 8 3z" fill="url(#SVGID_14_)"/><path d="m18.992 99.962-14-5c-4.625-1.604-2.688-5.219-2-7l24 9c-1.979 6.333-6.938 3.434-8 3z" fill="url(#SVGID_15_)"/></g><path d="m126.112 88.046-24.177-63.402c-.041-.107-.101-.199-.173-.281-.051-.062-.114-.115-.18-.163-.005-.004-.009-.009-.014-.013-.008-.005-.013-.013-.021-.019l-17.778-11.853-4.881-9.763c-.17-.338-.516-.552-.895-.552h-28c-.379 0-.725.214-.895.553l-4.881 9.763-17.779 11.852c-.043.028-.075.067-.112.101-.024.022-.05.04-.072.064-.079.087-.141.185-.185.293-.003.007-.009.011-.011.018l-23.988 62.932c-.005.013-.017.021-.021.034-.004.011-.002.023-.005.034l-.162.401c-.544 1.331-1.365 3.342-.519 5.213.534 1.182 1.646 2.073 3.294 2.645l13.957 4.983c.074.03.169.074.282.126.729.335 2.146.986 3.72.986.659 0 1.345-.114 2.02-.414 1.511-.672 2.625-2.127 3.319-4.349l6.033-21.096.002.014c.003.02.016.035.02.055.004.019-.001.038.004.057.5 1.806 2.043 3.185 3.863 3.596l-.807 6.457c-.7.325-1.341.975-2.009 2.317l-8.948 22.91c-2.094 4.11-.771 6.264.205 7.183 5.497 5.175 19.581 8.268 37.675 8.271 18.094-.004 32.178-3.096 37.675-8.271.976-.918 2.299-3.073.246-7.093l-9.026-23.083c-.647-1.294-1.279-1.924-1.973-2.241l-.806-6.45c1.82-.411 3.362-1.789 3.862-3.595.01-.037.019-.074.024-.112l.005-.032 6.047 21.139c.005.017.012.031.017.048.001.002 0 .003.001.005s.002.003.003.005c.688 2.165 1.793 3.602 3.29 4.268.674.3 1.36.415 2.02.415 1.573 0 2.991-.651 3.72-.986.114-.052.209-.097.24-.11l13.992-4.997c1.656-.575 2.768-1.465 3.302-2.647.846-1.874.024-3.886-.52-5.216zm-62.121-56.724c-3.884-7.18-7.304-14.32-10.196-21.322h20.395c-3.107 7.522-6.602 14.682-10.199 21.322zm11.004-23.322h-22.003c-.536-1.339-1.054-2.672-1.551-4h25.105c-.504 1.344-1.021 2.677-1.551 4zm-25.129-2.51c3.458 9.107 7.812 18.483 12.978 27.92-.657 1.186-1.316 2.358-1.976 3.508-5.09-9.288-9.39-18.65-12.785-27.862zm-4.318 8.342c.145-.097.262-.229.34-.385l.978-1.956c3.454 9.092 7.759 18.31 12.828 27.447-10.267 17.522-20.435 30.344-24.067 34.738l-.36-2.297-7.187-45.902zm-21.726 85.926c-1.453.649-3.236-.168-4.091-.562-.145-.066-.266-.122-.402-.176l-14.008-5.003c-1.118-.388-1.837-.92-2.136-1.582-.428-.945-.029-2.179.37-3.191l22.152 8.307c-.482 1.119-1.112 1.864-1.885 2.207zm2.508-4.11-22.045-8.267 22.302-58.508 6.665 42.565zm9.79-19.444c2.242-2.639 13.829-16.62 25.488-36.581.065-.076.108-.162.148-.252 1.006-1.726 2.01-3.496 3.01-5.307.048-.059.075-.129.108-.196 4.769-8.655 9.395-18.235 13.247-28.376l1.782 3.564c-13.906 37.737-38.257 65.509-41.321 68.91-1.051-.143-2.009-.828-2.462-1.762zm51.99 3.796.75 6h-15.867v-6zm-16.05 8.537 13.152 18.083c.546.69.71 1.047.76 1.195-.075.057-.188.129-.271.183-.089.057-.18.116-.219.145l-4.924 2.959c-.33.161-.635.354-.917.535-.159.103-.382.246-.529.317-.051-.072-.128-.199-.228-.416l-11.2-21.538h1.309c1.238 0 2.333-.577 3.067-1.463zm-1.177-9.162c.002.006.003.012.006.018.062.193.104.394.104.607v6c0 1.103-.897 2-2 2h-10c-1.103 0-2-.897-2-2v-6c0-.214.043-.416.105-.609.001-.002.001-.005.002-.007.262-.8 1.007-1.384 1.893-1.384h10c.883 0 1.626.579 1.89 1.375zm-11.89 10.625h1.312l-11.222 21.583c-.086.188-.157.304-.206.371-.146-.071-.369-.215-.529-.318-.282-.181-.587-.375-.841-.494l-4.948-2.967c-.091-.062-.182-.121-.271-.178-.083-.053-.196-.126-.271-.182.051-.15.22-.513.784-1.228l13.127-18.049c.735.886 1.828 1.462 3.065 1.462zm-4-4h-15.867l.75-6h15.117zm45.099 26.454c.787 1.545 1.462 3.635.205 4.818-5.136 4.835-18.707 7.724-36.304 7.728-17.597-.004-31.168-2.893-36.304-7.728-1.257-1.183-.582-3.273.246-4.908l8.952-22.917c.724-1.447 1.017-1.447 2.106-1.447h14.855l-12.639 17.379c-.96 1.213-1.315 2.055-1.188 2.817.136.809.744 1.2 1.188 1.485l5.346 3.217c.257.126.492.279.712.421.5.321 1.054.677 1.688.677.156 0 .318-.021.484-.07.798-.233 1.217-.973 1.441-1.464l11.681-22.462h2.868l11.658 22.417c.246.536.665 1.276 1.463 1.509.166.049.327.07.484.07.635 0 1.188-.355 1.688-.677.22-.142.455-.295.788-.462l5.052-3.033.218-.143c.444-.285 1.053-.676 1.188-1.485.127-.762-.229-1.604-1.164-2.785l-12.662-17.411h14.851c1.089 0 1.382 0 2.068 1.364zm-11.085-34.454h-16.57c-.694-1.19-1.97-2-3.444-2h-10c-1.474 0-2.75.81-3.444 2h-14.331c5.756-6.621 26.927-32.361 39.902-66.509l.978 1.956c.078.156.195.288.34.385l17.468 11.645-7.185 45.884v.001l-.693 4.422c-.377 1.267-1.666 2.216-3.021 2.216zm12.394-49.141 22.307 58.52-22.044 8.266-6.927-24.225zm23.408 63.577c-.299.662-1.018 1.194-2.144 1.584l-14.043 5.016c-.094.039-.215.094-.36.161-.854.392-2.636 1.211-4.091.562-.776-.345-1.408-1.095-1.887-2.209l22.154-8.308c.399 1.012.799 2.248.371 3.194z" fill="#3a322b"/></g></svg>